<svg width="1643" height="1166" viewBox="0 0 1643 1166" fill="none" xmlns="http://www.w3.org/2000/svg">
<g clip-path="url(#clip0_348_43)">
<path d="M1295.21 408.369C1295.21 408.369 1306.44 437.143 1282.76 452.734C1259.08 468.325 1234.78 449.686 1223.25 457.906C1234.78 449.686 1225.1 420.634 1247.57 403.343C1270.04 386.052 1293.57 406.058 1293.57 406.058" fill="#FC0332"/>
<path d="M1288.96 411.076C1284.7 408.028 1271.72 400.363 1259.56 409.726C1250.34 416.816 1248.76 426.932 1247.08 437.642C1246.89 438.874 1246.7 440.111 1246.49 441.345C1247.72 441.551 1248.96 441.772 1250.18 441.992C1260.85 443.904 1270.93 445.711 1280.64 439.317C1293.43 430.899 1290.47 416.187 1288.96 411.076Z" fill="#EFAF30"/>
<path d="M1286.83 412.595C1284.49 410.918 1277.35 406.7 1270.66 411.852C1265.59 415.753 1264.71 421.318 1263.79 427.211C1263.69 427.889 1263.58 428.57 1263.47 429.249C1264.14 429.362 1264.82 429.484 1265.5 429.605C1271.37 430.657 1276.91 431.651 1282.26 428.133C1289.29 423.501 1287.67 415.407 1286.83 412.595Z" fill="#FFEC7B"/>
<path d="M1221.61 460.742C1221.21 460.514 1220.86 460.201 1220.58 459.807C1219.81 458.728 1219.79 457.342 1220.41 456.266C1220.64 455.872 1220.95 455.52 1221.35 455.239C1225.05 452.597 1226.08 446.07 1227.26 438.512C1229.14 426.521 1231.47 411.597 1245.57 400.748C1255.68 392.97 1267.75 391.225 1280.49 395.704C1289.87 399.001 1296.27 404.506 1296.54 404.739C1296.93 405.079 1297.23 405.507 1297.43 405.987C1297.56 406.317 1300.67 414.165 1300.73 424.108C1300.8 437.611 1295.21 448.455 1284.56 455.469C1269.7 465.252 1254.83 462.587 1242.89 460.446C1235.36 459.096 1228.85 457.931 1225.15 460.573C1224.07 461.341 1222.68 461.363 1221.61 460.742ZM1285.99 405.369C1277.93 400.717 1263.35 395.331 1249.57 405.939C1237.54 415.193 1235.52 428.12 1233.73 439.525C1232.98 444.282 1232.29 448.697 1230.93 452.429C1234.91 452.361 1239.3 453.15 1244.04 453.999C1255.41 456.035 1268.28 458.344 1280.96 449.999C1300.2 437.333 1293.17 413.645 1291.62 409.171C1290.66 408.406 1288.69 406.929 1285.99 405.369Z" fill="#000072"/>
<path d="M1225.15 460.573L1186.35 485.011C1185.67 485.439 1184.93 484.459 1185.58 483.924L1221.35 455.239C1225.03 452.526 1228.93 457.959 1225.15 460.573Z" fill="#000072"/>
<path d="M1339.25 305.64C1339.25 305.64 1276.87 264.912 1263.26 348.426C1263.26 348.426 1290.98 319.209 1317.64 340.522L1339.25 305.64Z" fill="#FC0332"/>
<g opacity="0.6">
<path d="M1335.2 312.171L1339.25 305.639C1339.25 305.639 1276.87 264.912 1263.26 348.426C1263.26 348.426 1263.38 348.309 1263.59 348.097C1277.8 285.303 1323.54 305.777 1335.2 312.171Z" fill="white"/>
</g>
<path d="M1261.63 351.259C1260.45 350.583 1259.81 349.249 1260.03 347.899C1264.53 320.264 1274.83 302.716 1290.64 295.742C1313.91 285.477 1339.94 302.181 1341.04 302.897C1342.53 303.869 1342.97 305.852 1342.03 307.364L1320.42 342.246C1319.92 343.042 1319.11 343.589 1318.19 343.748C1317.27 343.907 1316.32 343.665 1315.59 343.079C1305.62 335.107 1294.31 333.867 1281.97 339.39C1272.37 343.685 1265.7 350.613 1265.64 350.682C1264.65 351.722 1263.09 351.996 1261.81 351.356C1261.75 351.326 1261.69 351.293 1261.63 351.259ZM1334.69 306.782C1327.78 303.061 1309.25 294.671 1293.25 301.747C1281.33 307.02 1272.95 319.827 1268.28 339.866C1271.2 337.732 1274.88 335.408 1279.11 333.497C1292.53 327.426 1305.45 328.231 1316.72 335.787L1334.69 306.782Z" fill="#000072"/>
<path d="M1405.04 397.979C1405.04 397.979 1423.16 470.24 1339.79 455.824C1339.79 455.824 1376.45 439.166 1365.01 407.016L1405.04 397.979Z" fill="#FC0332"/>
<g opacity="0.3">
<path d="M1342.7 454.301C1351.13 449.534 1374.46 433.55 1365.01 407.019L1393 400.697C1395 416.314 1395.12 456.63 1342.7 454.301Z" fill="#000072"/>
</g>
<path d="M1338.15 458.661C1337.28 458.161 1336.67 457.277 1336.54 456.241C1336.36 454.816 1337.13 453.438 1338.43 452.843C1338.52 452.805 1347.24 448.764 1354.44 441.093C1363.69 431.232 1366.21 420.137 1361.93 408.114C1361.61 407.231 1361.69 406.256 1362.14 405.436C1362.6 404.615 1363.38 404.028 1364.29 403.821L1404.32 394.785C1406.06 394.394 1407.78 395.458 1408.22 397.182C1408.54 398.453 1415.82 428.514 1398.52 447.155C1386.77 459.819 1366.82 463.822 1339.23 459.051C1338.84 458.985 1338.48 458.85 1338.15 458.661ZM1369.19 409.431C1372.65 422.535 1369.19 435.019 1359.07 445.727C1355.89 449.096 1352.49 451.813 1349.52 453.88C1370 456.01 1384.85 452.263 1393.72 442.7C1405.65 429.851 1403.75 409.638 1402.48 401.915L1369.19 409.431Z" fill="#000072"/>
<path d="M1347.26 369.546L1370.95 402.793L1339.86 413.029C1332.09 415.587 1323.55 412.789 1318.8 406.125L1311.1 395.31L1303.39 384.494C1298.64 377.83 1298.79 368.852 1303.74 362.341L1323.57 336.293L1347.26 369.54" fill="#01A7FD"/>
<g opacity="0.3">
<path d="M1349.78 373.077L1321.9 382.253C1314.13 384.811 1305.6 382.013 1300.85 375.349L1299.94 374.079C1300.03 377.731 1301.16 381.368 1303.39 384.495L1311.1 395.31L1318.8 406.125C1323.55 412.789 1332.09 415.587 1339.86 413.029L1370.95 402.793L1349.78 373.077Z" fill="#000072"/>
</g>
<path d="M1323.06 414.336C1320.39 412.795 1318.02 410.671 1316.14 408.025L1300.72 386.395C1295.11 378.517 1295.28 368.054 1301.14 360.357L1320.96 334.309C1321.59 333.481 1322.58 333.002 1323.62 333.019C1324.66 333.035 1325.63 333.545 1326.24 334.393L1349.93 367.64C1349.93 367.651 1349.94 367.662 1349.95 367.674L1373.62 400.893C1374.22 401.741 1374.39 402.825 1374.06 403.814C1373.74 404.803 1372.96 405.579 1371.98 405.904L1340.88 416.139C1334.78 418.148 1328.34 417.384 1323.06 414.336ZM1323.48 341.814L1306.35 364.325C1302.24 369.725 1302.12 377.067 1306.06 382.594L1321.47 404.225C1325.41 409.752 1332.39 412.04 1338.83 409.918L1365.7 401.073L1344.6 371.447C1344.59 371.436 1344.58 371.424 1344.57 371.413L1323.48 341.814Z" fill="#000072"/>
<path d="M1368.83 412.795C1362.1 414.469 1355.03 411.866 1350.99 406.205L1313.82 354.038C1309.79 348.384 1309.64 340.852 1313.42 335.033C1327.21 313.8 1364.47 262.729 1425.46 223.774C1438.27 215.6 1450.65 209.776 1462.43 205.775C1507.13 190.545 1542.9 201.433 1558.69 208.256C1564.4 210.724 1568.28 216.172 1568.74 222.368C1570.04 239.525 1568.66 276.882 1539.66 314.157C1532.04 323.98 1522.48 333.787 1510.57 343.226C1453.84 388.162 1393.4 406.688 1368.83 412.795Z" fill="white"/>
<path d="M1539.66 314.157C1530.26 229.741 1462.42 205.775 1462.42 205.775C1507.13 190.545 1542.9 201.433 1558.69 208.256C1564.4 210.724 1568.28 216.172 1568.74 222.368C1570.04 239.525 1568.66 276.882 1539.66 314.157Z" fill="#FC0332"/>
<g opacity="0.6">
<path d="M1568.49 220.517C1567.43 219.712 1566.28 219.027 1565.04 218.491C1549.25 211.666 1513.49 200.775 1468.77 216.003C1457 220.008 1444.62 225.838 1431.81 234.01C1380.96 266.484 1346.61 307.373 1328.6 332.378C1325 337.376 1322.07 341.732 1319.77 345.266C1316.94 349.627 1316.31 354.951 1317.88 359.731L1315.22 356.005L1313.82 354.043C1309.8 348.389 1309.64 340.856 1313.42 335.034C1327.21 313.804 1364.46 262.727 1425.46 223.774C1438.27 215.602 1450.65 209.776 1462.43 205.772C1507.13 190.547 1542.9 201.434 1558.68 208.254C1563.82 210.474 1567.47 215.099 1568.49 220.517Z" fill="white"/>
</g>
<g opacity="0.3">
<path d="M1533.23 305.822C1525.6 315.647 1516.05 325.453 1504.14 334.89C1447.41 379.826 1386.97 398.356 1362.4 404.465C1356.88 405.835 1351.13 404.329 1347.01 400.623L1317.88 359.731C1316.32 354.951 1316.94 349.627 1319.77 345.265C1322.07 341.731 1325 337.376 1328.6 332.377L1350.47 363.054C1354.5 368.72 1361.57 371.324 1368.31 369.649C1381.14 366.458 1403.75 359.885 1430.51 347.913C1447.07 353.916 1465.85 351.556 1480.48 341.128C1492.66 332.453 1500.17 319.62 1502.45 305.919C1504.99 304.026 1507.52 302.074 1510.05 300.075C1521.96 290.637 1531.51 280.831 1539.13 271.007C1551.01 255.749 1558.25 240.472 1562.57 226.575C1561.96 246.11 1556.44 275.998 1533.23 305.822Z" fill="#000072"/>
</g>
<path d="M1538.02 317.008C1537.15 316.505 1536.52 315.609 1536.4 314.532C1531.67 272.075 1511.56 245.635 1495.52 230.932C1478.07 214.935 1461.49 208.923 1461.33 208.864C1459.62 208.257 1458.73 206.387 1459.34 204.684C1459.94 202.981 1461.81 202.088 1463.51 202.69C1464.23 202.943 1481.31 209.097 1499.72 225.897C1516.68 241.372 1537.94 269.186 1542.91 313.808C1543.11 315.605 1541.81 317.225 1540.02 317.425C1539.29 317.505 1538.6 317.345 1538.02 317.008Z" fill="#000072"/>
<path d="M1354.68 413.903C1352.23 412.487 1350.05 410.535 1348.33 408.11L1311.16 355.943C1306.32 349.153 1306.13 340.243 1310.68 333.242C1324.05 312.656 1361.85 260.511 1423.7 221.015C1486.64 180.824 1539.98 196.603 1559.99 205.252C1566.84 208.211 1571.45 214.679 1572.01 222.123C1573.65 243.861 1571.15 299.427 1512.61 345.795C1455.08 391.362 1393.45 410.053 1369.63 415.974C1364.42 417.268 1359.1 416.454 1354.68 413.903ZM1558.8 211.97C1558.35 211.71 1557.88 211.474 1557.39 211.264C1538.34 203.03 1487.52 188.033 1427.23 226.535C1366.45 265.343 1329.32 316.582 1316.17 336.811C1313.1 341.54 1313.22 347.558 1316.49 352.142L1353.66 404.31C1356.93 408.893 1362.57 410.978 1368.05 409.617C1391.46 403.799 1452.01 385.434 1508.54 340.661C1564.62 296.242 1567.04 243.311 1565.48 222.616C1565.14 218.134 1562.63 214.181 1558.8 211.97Z" fill="#000072"/>
<path d="M1372.14 351.809C1372.14 351.809 1371.88 373.283 1353.26 387.373C1334.63 401.463 1301.53 402.125 1301.53 402.125C1301.53 402.125 1312.96 371.049 1332.36 358.046C1351.76 345.043 1372.14 351.809 1372.14 351.809Z" fill="#FC0332"/>
<g opacity="0.6">
<path d="M1331.39 367.21C1349.1 355.341 1367.62 359.94 1370.71 360.834C1372.09 355.507 1372.14 351.809 1372.14 351.809C1372.14 351.809 1351.76 345.043 1332.36 358.046C1312.96 371.049 1301.53 402.125 1301.53 402.125C1301.53 402.125 1302.66 402.102 1304.61 401.977C1309.54 391.751 1318.78 375.664 1331.39 367.21Z" fill="white"/>
</g>
<path d="M1299.89 404.961C1299.49 404.729 1299.13 404.413 1298.86 404.025C1298.23 403.144 1298.08 402.009 1298.45 400.994C1298.93 399.684 1310.49 368.766 1330.54 355.325C1351.03 341.587 1372.28 348.404 1373.17 348.701C1374.53 349.148 1375.43 350.423 1375.42 351.848C1375.41 352.791 1374.91 375.098 1355.23 389.984C1335.98 404.548 1302.99 405.371 1301.59 405.399C1300.98 405.411 1300.4 405.255 1299.89 404.961ZM1368.64 354.304C1362.91 353.117 1348.17 351.393 1334.18 360.766C1320.31 370.064 1310.52 389.56 1306.55 398.543C1316.34 397.73 1337.96 394.836 1351.28 384.761C1364.71 374.605 1367.89 360.107 1368.64 354.304Z" fill="#000072"/>
<path d="M1426.64 335.825C1448.07 348.2 1475.48 340.856 1487.85 319.423C1500.23 297.989 1492.88 270.583 1471.45 258.208C1450.02 245.833 1422.61 253.177 1410.23 274.61C1397.86 296.044 1405.2 323.451 1426.64 335.825Z" fill="#01A7FD"/>
<g opacity="0.6">
<path d="M1423.69 270.621C1443.85 256.259 1471.83 260.957 1486.19 281.113C1490.15 286.675 1492.66 292.835 1493.79 299.139C1494.26 289.445 1491.61 279.531 1485.54 271.013C1471.18 250.857 1443.2 246.159 1423.04 260.521C1408.45 270.919 1401.96 288.456 1404.94 304.994C1405.58 291.748 1412.05 278.913 1423.69 270.621Z" fill="white"/>
</g>
<path d="M1424.97 338.672C1419.08 335.274 1413.94 330.622 1409.88 324.921C1402.43 314.46 1399.49 301.723 1401.62 289.056C1403.75 276.389 1410.68 265.307 1421.14 257.854C1442.73 242.468 1472.82 247.519 1488.21 269.113C1503.59 290.706 1498.54 320.792 1476.95 336.179C1466.49 343.633 1453.75 346.567 1441.08 344.44C1435.32 343.473 1429.88 341.509 1424.97 338.672ZM1469.87 261.077C1456.2 253.189 1438.6 253.452 1424.94 263.188C1415.9 269.626 1409.92 279.198 1408.08 290.14C1406.24 301.082 1408.78 312.084 1415.21 321.121C1421.65 330.157 1431.22 336.143 1442.17 337.981C1453.11 339.818 1464.11 337.284 1473.15 330.846C1491.8 317.555 1496.16 291.566 1482.87 272.913C1479.32 267.924 1474.85 263.957 1469.87 261.077Z" fill="#000072"/>
<path d="M1456.04 323.13C1470.46 319.265 1479.02 304.441 1475.15 290.019C1471.29 275.597 1456.47 267.038 1442.04 270.902C1427.62 274.767 1419.06 289.591 1422.93 304.013C1426.79 318.435 1441.62 326.994 1456.04 323.13Z" fill="#6ED8F2"/>
<g opacity="0.3">
<path d="M1433.07 286.719C1445.21 278.069 1462.13 280.908 1470.78 293.049C1473.07 296.275 1474.55 299.838 1475.27 303.493C1477.09 296.104 1475.81 287.997 1471.06 281.329C1462.41 269.188 1445.5 266.349 1433.35 274.999C1424.44 281.352 1420.55 292.159 1422.53 302.262C1424.02 296.198 1427.6 290.619 1433.07 286.719Z" fill="#000072"/>
</g>
<path d="M1433.85 323.242C1430.21 321.14 1426.95 318.246 1424.36 314.605C1419.67 308.021 1417.82 299.993 1419.16 292.001C1420.51 284.009 1424.87 277.023 1431.46 272.332C1438.04 267.641 1446.07 265.796 1454.06 267.138C1462.05 268.479 1469.04 272.845 1473.73 279.428C1483.43 293.04 1480.24 312.003 1466.63 321.702C1456.66 328.805 1443.82 328.997 1433.85 323.242ZM1460.95 276.458C1453.14 271.946 1443.07 272.097 1435.26 277.666C1424.59 285.269 1422.09 300.135 1429.69 310.805C1437.29 321.474 1452.16 323.97 1462.83 316.368C1473.5 308.765 1476 293.899 1468.39 283.229C1466.36 280.375 1463.81 278.106 1460.95 276.458Z" fill="#000072"/>
<path d="M1326.19 254.038C1328.96 255.412 1332.2 256.524 1335.89 256.978C1333.66 254.014 1331.09 251.769 1328.53 250.064C1329.89 247.306 1331 244.075 1331.45 240.391C1328.48 242.633 1326.22 245.216 1324.52 247.788C1319.24 245.262 1314.86 244.836 1314.86 244.836C1314.86 244.836 1317.43 248.427 1322.27 251.738C1319.74 257.028 1319.31 261.422 1319.31 261.422C1319.31 261.422 1322.89 258.864 1326.19 254.038Z" fill="white"/>
<path d="M1436.34 437.401C1439.11 438.775 1442.35 439.887 1446.04 440.341C1443.81 437.377 1441.24 435.131 1438.68 433.427C1440.04 430.669 1441.15 427.438 1441.6 423.754C1438.63 425.995 1436.37 428.579 1434.67 431.151C1429.39 428.625 1425.01 428.199 1425.01 428.199C1425.01 428.199 1427.58 431.79 1432.43 435.101C1429.89 440.391 1429.46 444.785 1429.46 444.785C1429.46 444.785 1433.04 442.227 1436.34 437.401Z" fill="white"/>
<path d="M1515.64 385.292C1517.4 386.169 1519.47 386.879 1521.83 387.168C1520.41 385.277 1518.76 383.844 1517.13 382.756C1518 380.996 1518.71 378.935 1518.99 376.584C1517.1 378.014 1515.66 379.663 1514.57 381.304C1511.2 379.692 1508.41 379.42 1508.41 379.42C1508.41 379.42 1510.05 381.712 1513.14 383.825C1511.52 387.201 1511.25 390.004 1511.25 390.004C1511.25 390.004 1513.53 388.372 1515.64 385.292Z" fill="white"/>
<path d="M1414.15 199.562C1415.91 200.439 1417.98 201.148 1420.34 201.438C1418.91 199.546 1417.27 198.114 1415.64 197.026C1416.51 195.266 1417.21 193.204 1417.5 190.854C1415.6 192.284 1414.17 193.932 1413.08 195.574C1409.71 193.962 1406.92 193.69 1406.92 193.69C1406.92 193.69 1408.56 195.981 1411.65 198.094C1410.03 201.47 1409.75 204.274 1409.75 204.274C1409.75 204.274 1412.04 202.642 1414.15 199.562Z" fill="white"/>
</g>
<line x1="1240.78" y1="447.598" x2="1.4999" y2="1163.1" stroke="url(#paint0_linear_348_43)" stroke-width="6"/>
<defs>
<linearGradient id="paint0_linear_348_43" x1="1239.03" y1="444.567" x2="-0.250104" y2="1160.07" gradientUnits="userSpaceOnUse">
<stop stop-color="#FC0332"/>
<stop offset="1" stop-color="#130838"/>
</linearGradient>
<clipPath id="clip0_348_43">
<rect width="496.417" height="496.417" fill="white" transform="translate(1301.21) rotate(30)"/>
</clipPath>
</defs>
</svg>
