<svg width="64" height="64" viewBox="0 0 64 64" fill="none" xmlns="http://www.w3.org/2000/svg">
<path d="M57.9677 43.0133C57.9812 43.5964 57.8032 44.1678 57.461 44.64C57.1232 45.1215 56.6356 45.4777 56.0743 45.6533L51.5143 47.1733C50.1085 47.6371 48.8302 48.4224 47.781 49.4667C46.7311 50.5115 45.945 51.7912 45.4877 53.2L43.8877 57.7333C43.721 58.2775 43.3846 58.7541 42.9277 59.0933C42.4415 59.4276 41.8643 59.6045 41.2743 59.6C40.6827 59.6253 40.0995 59.4529 39.6167 59.1101C39.1338 58.7673 38.7788 58.2735 38.6077 57.7067L37.0877 53.1467C36.6303 51.7379 35.8442 50.4582 34.7943 49.4133C33.7352 48.3754 32.4606 47.5833 31.061 47.0933L26.501 45.6C25.9619 45.4094 25.4895 45.0667 25.141 44.6133C24.7878 44.1334 24.5921 43.5558 24.581 42.96C24.5557 42.3684 24.7281 41.7852 25.0709 41.3023C25.4137 40.8195 25.9074 40.4645 26.4743 40.2933L31.061 38.7733C32.4834 38.3137 33.7764 37.5228 34.8334 36.4658C35.8904 35.4087 36.6813 34.1158 37.141 32.6933L38.661 28.1867C38.8164 27.6322 39.1472 27.1429 39.6039 26.792C40.0605 26.4411 40.6185 26.2474 41.1943 26.24C41.7677 26.24 42.3303 26.3973 42.821 26.6933C43.3063 27.0267 43.6797 27.5013 43.8877 28.0533L45.4343 32.6933C45.894 34.1158 46.6849 35.4087 47.7419 36.4658C48.7989 37.5228 50.0919 38.3137 51.5143 38.7733L56.0476 40.3733C56.5992 40.5541 57.0767 40.9099 57.4076 41.3867C57.7689 41.8521 57.9658 42.4241 57.9677 43.0133ZM31.3037 26.0533C31.2996 26.5761 31.1419 27.0861 30.8503 27.52C30.5351 27.9493 30.0986 28.2744 29.597 28.4533L26.237 29.5733C25.2957 29.8987 24.4423 30.4267 23.7303 31.12C23.0329 31.8287 22.5042 32.6855 22.1837 33.6267L21.037 36.9333C20.8763 37.4445 20.5473 37.8862 20.1037 38.1867C19.6653 38.4928 19.145 38.66 18.6103 38.6667C18.0637 38.6576 17.5331 38.4807 17.0903 38.16C16.6709 37.841 16.3554 37.4049 16.1837 36.9067L15.0903 33.5733C14.7695 32.6401 14.2406 31.792 13.5437 31.0933C12.8592 30.3786 12.0066 29.8468 11.0637 29.5467L7.73032 28.4267C7.21309 28.2639 6.76348 27.936 6.45032 27.4933C6.23806 27.1609 6.10219 26.7855 6.0525 26.3942C6.00281 26.0029 6.04054 25.6055 6.16297 25.2305C6.2854 24.8556 6.48949 24.5125 6.76052 24.2259C7.03155 23.9393 7.36277 23.7165 7.73032 23.5733L11.0637 22.48C12.0068 22.1507 12.8636 21.6128 13.57 20.9063C14.2764 20.1999 14.8143 19.3432 15.1437 18.4L16.237 15.12C16.3942 14.6285 16.6906 14.1931 17.0903 13.8667C17.5151 13.5466 18.0259 13.3609 18.557 13.3333C19.0951 13.3189 19.625 13.4676 20.077 13.76C20.5218 14.0603 20.8657 14.4878 21.0637 14.9867L22.1837 18.4C22.513 19.3432 23.0509 20.1999 23.7573 20.9063C24.4637 21.6128 25.3205 22.1507 26.2637 22.48L29.597 23.6267C30.0955 23.7979 30.5257 24.1252 30.8237 24.56C31.1393 24.9936 31.3075 25.517 31.3037 26.0533ZM46.741 11.76C46.7168 12.2462 46.5601 12.7165 46.2877 13.12C46.0102 13.5003 45.6174 13.7808 45.1677 13.92L43.5143 14.48C43.1932 14.5908 42.9014 14.7733 42.6612 15.0135C42.4209 15.2538 42.2385 15.5455 42.1277 15.8667L41.541 17.5467C41.3801 17.9558 41.1132 18.3148 40.7677 18.5867C40.3745 18.9016 39.8847 19.0712 39.381 19.0667C38.9196 19.0401 38.4715 18.9029 38.0743 18.6667C37.6781 18.3705 37.3806 17.9615 37.221 17.4933L36.661 15.84C36.5624 15.5131 36.3782 15.2186 36.1277 14.9867C35.8926 14.74 35.5991 14.5565 35.2743 14.4533L33.621 13.92C33.181 13.7485 32.7945 13.4632 32.501 13.0933C32.2212 12.6952 32.0721 12.2199 32.0743 11.7333C32.0898 11.2455 32.2474 10.7729 32.5277 10.3733C32.8126 10.0007 33.2028 9.72206 33.6477 9.57334L35.2743 9.04C35.6024 8.92718 35.9025 8.74531 36.1543 8.50667C36.3911 8.25342 36.5727 7.95376 36.6877 7.62667L37.2477 5.97334C37.4077 5.56 37.661 5.19467 37.9943 4.90667C38.3769 4.6243 38.828 4.44937 39.301 4.4C39.8042 4.39712 40.2967 4.54579 40.7143 4.82667C41.0902 5.10947 41.3846 5.48668 41.5677 5.92L42.1277 7.62667C42.2428 7.95366 42.4244 8.25328 42.661 8.50667C42.909 8.73699 43.1986 8.91799 43.5143 9.04L45.1943 9.6C45.6216 9.76811 45.9982 10.0437 46.2877 10.4C46.5785 10.7941 46.7372 11.2702 46.741 11.76Z" fill="white"/>
</svg>
