<svg width="69" height="86" viewBox="0 0 69 86" fill="none" xmlns="http://www.w3.org/2000/svg">
<g clip-path="url(#clip0_8_468)">
<path d="M21.5393 71.4353C17.3558 67.6736 16.1346 59.7695 17.8776 54.0432C20.8997 57.6536 25.0871 58.7972 29.4244 59.4428C36.1204 60.439 42.6963 60.0664 48.9165 57.0558C49.6281 56.7111 50.2856 56.2528 51.0632 55.7886C51.6468 57.4543 51.7987 59.1359 51.5949 60.8474C51.0992 65.0156 48.9905 68.2354 45.6365 70.6762C44.2954 71.6524 42.8762 72.5251 41.4911 73.4457C37.2357 76.2749 36.0843 79.5924 37.6834 84.4181C37.7214 84.5356 37.7554 84.6532 37.8413 84.9401C35.6687 83.9838 34.0816 82.5911 32.8723 80.7599C31.5951 78.8273 30.9875 76.6894 30.9555 74.3762C30.9395 73.2504 30.9395 72.1147 30.7856 71.0049C30.4099 68.2992 29.1186 67.0878 26.6862 67.018C24.1897 66.9463 22.2149 68.4646 21.6912 70.8555C21.6513 71.0388 21.5933 71.2201 21.5353 71.4332L21.5393 71.4353Z" fill="#FF5D01"/>
<path d="M0.5 55.7965C0.5 55.7965 11.939 50.2555 23.41 50.2555L32.0587 23.6403C32.3824 22.3532 33.3279 21.4785 34.3952 21.4785C35.4626 21.4785 36.408 22.3532 36.7318 23.6403L45.3804 50.2555C58.9662 50.2555 68.2904 55.7965 68.2904 55.7965C68.2904 55.7965 48.8603 3.1639 48.8223 3.05831C48.2647 1.5022 47.3233 0.5 46.0541 0.5H22.7384C21.4691 0.5 20.5657 1.5022 19.97 3.05831C19.928 3.16191 0.5 55.7965 0.5 55.7965Z" fill="white"/>
</g>
<defs>
<clipPath id="clip0_8_468">
<rect width="68" height="85" fill="white" transform="translate(0.5 0.5)"/>
</clipPath>
</defs>
</svg>
