<svg width="55" height="80" viewBox="0 0 55 80" fill="none" xmlns="http://www.w3.org/2000/svg">
<g clip-path="url(#clip0_8_473)">
<path d="M13.7527 80.0002C21.2032 80.0002 27.25 74.0268 27.25 66.6668V53.3335H13.7527C6.30216 53.3335 0.255371 59.3068 0.255371 66.6668C0.255371 74.0268 6.30216 80.0002 13.7527 80.0002Z" fill="#0ACF83"/>
<path d="M0.255371 40.0001C0.255371 32.6401 6.30216 26.6667 13.7527 26.6667H27.25V53.3334H13.7527C6.30216 53.3334 0.255371 47.3601 0.255371 40.0001Z" fill="#A259FF"/>
<path d="M0.255371 13.3333C0.255371 5.97333 6.30216 0 13.7527 0H27.25V26.6667H13.7527C6.30216 26.6667 0.255371 20.6933 0.255371 13.3333Z" fill="#F24E1E"/>
<path d="M27.25 0H40.7473C48.1978 0 54.2446 5.97333 54.2446 13.3333C54.2446 20.6933 48.1978 26.6667 40.7473 26.6667H27.25V0Z" fill="#FF7262"/>
<path d="M54.2446 40.0001C54.2446 47.3601 48.1978 53.3334 40.7473 53.3334C33.2968 53.3334 27.25 47.3601 27.25 40.0001C27.25 32.6401 33.2968 26.6667 40.7473 26.6667C48.1978 26.6667 54.2446 32.6401 54.2446 40.0001Z" fill="#1ABCFE"/>
</g>
<defs>
<clipPath id="clip0_8_473">
<rect width="54" height="80" fill="white" transform="translate(0.25)"/>
</clipPath>
</defs>
</svg>
