<svg width="81" height="80" viewBox="0 0 81 80" fill="none" xmlns="http://www.w3.org/2000/svg">
<g clip-path="url(#clip0_8_460)">
<path fill-rule="evenodd" clip-rule="evenodd" d="M40.3808 0.816406C18.3278 0.816406 0.5 18.7756 0.5 40.9935C0.5 58.7535 11.9229 73.787 27.7694 79.1078C29.7506 79.5078 30.4763 78.2433 30.4763 77.1797C30.4763 76.2482 30.411 73.0556 30.411 69.7291C19.3171 72.1242 17.0069 64.9397 17.0069 64.9397C15.2241 60.2833 12.5824 59.0866 12.5824 59.0866C8.95143 56.6254 12.8469 56.6254 12.8469 56.6254C16.8747 56.8915 18.9882 60.7495 18.9882 60.7495C22.5531 66.8686 28.2976 65.1397 30.6086 64.0752C30.9384 61.4809 31.9955 59.685 33.118 58.6874C24.2698 57.756 14.9604 54.2972 14.9604 38.8646C14.9604 34.4744 16.5441 30.8825 19.0535 28.0891C18.6576 27.0915 17.2706 22.9666 19.4502 17.4458C19.4502 17.4458 22.8176 16.3813 30.4102 21.5699C33.6609 20.6904 37.0133 20.243 40.3808 20.2393C43.7482 20.2393 47.1808 20.7054 50.3506 21.5699C57.9441 16.3813 61.3114 17.4458 61.3114 17.4458C63.491 22.9666 62.1033 27.0915 61.7073 28.0891C64.2829 30.8825 65.8012 34.4744 65.8012 38.8646C65.8012 54.2972 56.4918 57.6891 47.5775 58.6874C49.0306 59.9511 50.2845 62.3454 50.2845 66.1372C50.2845 71.525 50.2192 75.8491 50.2192 77.1788C50.2192 78.2433 50.9457 79.5078 52.9261 79.1086C68.7727 73.7862 80.1955 58.7535 80.1955 40.9935C80.2608 18.7756 62.3678 0.816406 40.3808 0.816406Z" fill="white"/>
</g>
<defs>
<clipPath id="clip0_8_460">
<rect width="80" height="78.3673" fill="white" transform="translate(0.5 0.816406)"/>
</clipPath>
</defs>
</svg>
