<svg width="81" height="84" viewBox="0 0 81 84" fill="none" xmlns="http://www.w3.org/2000/svg">
<g clip-path="url(#clip0_8_445)">
<path d="M80.4536 19.4534C80.4834 19.5628 80.5 19.6755 80.5 19.7915V37.4721C80.5 37.9328 80.2514 38.3604 79.8536 38.5891L65.0138 47.1311V64.0625C65.0138 64.5233 64.7685 64.9475 64.3707 65.1796L33.3983 83.0093C33.3287 83.049 33.2491 83.0756 33.1729 83.1021C33.143 83.112 33.1165 83.1286 33.0867 83.1385C32.8712 83.1949 32.6425 83.1949 32.4271 83.1385C32.3906 83.1286 32.3608 83.1087 32.3243 83.0955C32.2547 83.0689 32.1785 83.0457 32.1122 83.0093L1.14636 65.1796C0.745287 64.9509 0.5 64.5233 0.5 64.0625V11.0275C0.5 10.9115 0.516573 10.7988 0.546405 10.6894C0.556349 10.6529 0.579553 10.6198 0.592812 10.58C0.616015 10.5137 0.639218 10.4441 0.675679 10.3811C0.698882 10.338 0.735343 10.3049 0.765175 10.2651C0.801637 10.2121 0.834783 10.1591 0.881189 10.116C0.917651 10.0795 0.967372 10.053 1.00715 10.0198C1.05355 9.98006 1.09664 9.94029 1.14968 9.90714L16.6326 0.990627C17.0303 0.761913 17.5242 0.761913 17.922 0.990627L33.4049 9.90714H33.4082C33.4613 9.94029 33.5043 9.98006 33.5508 10.0165C33.5938 10.0497 33.6403 10.0762 33.6767 10.1126C33.7231 10.1591 33.753 10.2121 33.7927 10.2651C33.8192 10.3049 33.8557 10.338 33.8789 10.3811C33.9154 10.4441 33.9386 10.5137 33.9618 10.58C33.975 10.6165 33.9982 10.6496 34.0082 10.6894C34.038 10.7988 34.0546 10.9115 34.0546 11.0275V44.1545L46.9587 36.7263V19.7882C46.9587 19.6755 46.9752 19.5595 47.0051 19.4534C47.015 19.4137 47.0382 19.3805 47.0515 19.3441C47.078 19.2778 47.1012 19.2082 47.1343 19.1452C47.1576 19.1021 47.194 19.0689 47.2205 19.0292C47.2603 18.9761 47.2901 18.9231 47.3365 18.88C47.373 18.8435 47.4194 18.817 47.4625 18.7839C47.5122 18.7441 47.552 18.7043 47.605 18.6712L63.0913 9.75466C63.489 9.52595 63.9829 9.52595 64.3807 9.75466L79.8636 18.6712C79.9199 18.7043 79.9597 18.7441 80.0094 18.7806C80.0492 18.8137 80.0956 18.8402 80.1321 18.8767C80.1785 18.9231 80.2083 18.9761 80.2481 19.0292C80.2779 19.0689 80.3111 19.1021 80.3343 19.1452C80.3707 19.2082 80.3939 19.2778 80.4171 19.3441C80.4238 19.3805 80.4436 19.4137 80.4536 19.4534ZM77.9179 36.723V22.0223L72.4983 25.1414L65.0138 29.4505V44.1512L77.9179 36.723ZM62.4316 63.3167V48.6061L55.0697 52.8125L34.0413 64.8149V79.6648L62.4316 63.3167ZM3.0722 13.2583V63.3167L31.4592 79.6614V64.8149L16.6293 56.4222L16.626 56.4188L16.6193 56.4155C16.5696 56.3857 16.5265 56.3459 16.4801 56.3095C16.4403 56.2763 16.3939 56.2531 16.3575 56.2166L16.3542 56.2133C16.3111 56.1736 16.2845 56.1238 16.2481 56.0774C16.2149 56.0343 16.1785 55.9979 16.152 55.9515V55.9482C16.1221 55.8984 16.1056 55.8421 16.0857 55.7857C16.0658 55.736 16.0359 55.6929 16.026 55.6399C16.0094 55.5802 16.0061 55.5139 15.9995 55.451C15.9929 55.4012 15.9796 55.3548 15.9796 55.3051V20.6865L8.49171 16.3774L3.0722 13.2583ZM17.269 3.59929L4.36824 11.0242L17.2657 18.4491L30.1665 11.0209L17.269 3.59929ZM23.9779 49.9486L31.4625 45.6395V13.2583L26.043 16.3774L18.5584 20.6865V53.0677L23.9779 49.9486ZM63.7244 12.3633L50.8236 19.7882L63.7244 27.2131L76.6218 19.7849L63.7244 12.3633ZM62.4316 29.4505L54.9471 25.1414L49.5275 22.0223V36.723L57.0121 41.0321L62.4316 44.1545V29.4505ZM32.7486 62.5808L51.6688 51.7783L61.1256 46.382L48.2348 38.9604L33.3916 47.5056L19.8644 55.2919L32.7486 62.5808Z" fill="#FF2D20"/>
</g>
<defs>
<clipPath id="clip0_8_445">
<rect width="80" height="82.3617" fill="white" transform="translate(0.5 0.819092)"/>
</clipPath>
</defs>
</svg>
