<svg width="81" height="72" viewBox="0 0 81 72" fill="none" xmlns="http://www.w3.org/2000/svg">
<g clip-path="url(#clip0_8_426)">
<path d="M40.5001 43.1303C44.4381 43.1303 47.6305 39.9378 47.6305 35.9998C47.6305 32.0618 44.4381 28.8694 40.5001 28.8694C36.562 28.8694 33.3696 32.0618 33.3696 35.9998C33.3696 39.9378 36.562 43.1303 40.5001 43.1303Z" fill="#61DAFB"/>
<path d="M40.5 50.6088C61.6309 50.6088 78.7609 44.0682 78.7609 36.0001C78.7609 27.9319 61.6309 21.3914 40.5 21.3914C19.3691 21.3914 2.23914 27.9319 2.23914 36.0001C2.23914 44.0682 19.3691 50.6088 40.5 50.6088Z" stroke="#61DAFB" stroke-width="4"/>
<path d="M27.8484 43.3044C38.4139 61.6043 52.6431 73.169 59.6304 69.1349C66.6176 65.1008 63.7169 46.9956 53.1514 28.6957C42.586 10.3958 28.3567 -1.16894 21.3695 2.86514C14.3823 6.89922 17.283 25.0045 27.8484 43.3044Z" stroke="#61DAFB" stroke-width="4"/>
<path d="M27.8484 28.6954C17.283 46.9953 14.3823 65.1005 21.3695 69.1346C28.3567 73.1687 42.586 61.604 53.1514 43.3041C63.7169 25.0042 66.6176 6.89892 59.6304 2.86484C52.6431 -1.16924 38.4139 10.3955 27.8484 28.6954Z" stroke="#61DAFB" stroke-width="4"/>
</g>
<defs>
<clipPath id="clip0_8_426">
<rect width="80" height="71.1773" fill="white" transform="translate(0.5 0.411377)"/>
</clipPath>
</defs>
</svg>
