<svg width="63" height="82" viewBox="0 0 63 82" fill="none" xmlns="http://www.w3.org/2000/svg">
<g clip-path="url(#clip0_8_453)">
<path d="M6.73021 10.4636C6.73021 21.5189 13.6146 28.0986 27.4012 31.5687L42.0075 34.9275C55.0535 37.8993 62.9958 45.2798 62.9958 57.3049C63.0971 62.5411 61.3783 67.6572 58.13 71.7901C58.13 59.7918 51.8714 53.3099 36.7758 49.4127L22.434 46.1785C10.9481 43.5804 2.08474 37.5122 2.08474 24.4506C2.03185 19.4057 3.66262 14.4853 6.73021 10.4636Z" fill="#E84031"/>
<path opacity="0.7" d="M49.1608 54.3598C55.3885 58.3103 58.1211 63.8401 58.1211 71.7723C52.9644 78.3209 43.9027 82 33.2542 82C15.3291 82 2.78551 73.2493 0 58.0478H17.2111C19.4281 65.0279 25.2944 68.2622 33.1264 68.2622C42.6862 68.2622 49.0418 63.2039 49.1696 54.3286" fill="#E84031"/>
<path opacity="0.7" d="M15.6818 26.8529C12.839 25.1757 10.5031 22.7689 8.92519 19.8816C7.35173 16.9944 6.59365 13.7423 6.73028 10.4635C11.7063 3.96831 20.3625 0 30.914 0C49.1741 0 59.7388 9.56489 62.3436 23.0269H45.7847C43.9601 17.7195 39.3851 13.5866 31.0506 13.5866C22.1432 13.5866 16.0697 18.7294 15.7171 26.8529" fill="#E84031"/>
</g>
<defs>
<clipPath id="clip0_8_453">
<rect width="63" height="82" fill="white"/>
</clipPath>
</defs>
</svg>
