<svg width="81" height="64" viewBox="0 0 81 64" fill="none" xmlns="http://www.w3.org/2000/svg">
<path d="M69.3863 35.4809C66.5953 35.4955 64.1697 36.1676 62.1385 37.1613C61.3933 35.6854 60.6481 34.3703 60.5166 33.4059C60.3705 32.2808 60.1951 31.594 60.3705 30.2496C60.5458 28.9053 61.3349 26.9911 61.3203 26.845C61.3057 26.6989 61.1449 26.0121 59.5376 25.9975C57.9302 25.9829 56.542 26.3043 56.3813 26.7281C56.2206 27.1518 55.9137 28.1162 55.7091 29.1099C55.4315 30.5711 52.4944 35.7877 50.814 38.5202C50.2734 37.4535 49.8058 36.5183 49.7035 35.7731C49.5574 34.6479 49.382 33.9612 49.5574 32.6168C49.7327 31.2725 50.5218 29.3583 50.5072 29.2122C50.4925 29.066 50.3318 28.3793 48.7245 28.3647C47.1171 28.35 45.7289 28.6715 45.5682 29.0953C45.4075 29.519 45.2321 30.5127 44.896 31.4771C44.5599 32.4415 40.6585 41.1504 39.6356 43.4007C39.1096 44.5551 38.6566 45.4757 38.3351 46.104C38.3351 46.104 38.3205 46.1478 38.2766 46.2209C37.999 46.7616 37.8383 47.0538 37.8383 47.0538C37.8383 47.0538 37.8383 47.0538 37.8383 47.0684C37.6191 47.4629 37.3853 47.8283 37.2684 47.8283C37.1807 47.8283 37.02 46.7762 37.2976 45.3442C37.8821 42.3194 39.2703 37.6143 39.2557 37.4535C39.2557 37.3658 39.5187 36.5476 38.3497 36.1238C37.21 35.7 36.8008 36.4014 36.6985 36.4014C36.5962 36.4014 36.5232 36.6498 36.5232 36.6498C36.5232 36.6498 37.7944 31.3602 34.0975 31.3602C31.7888 31.3602 28.6033 33.8881 27.0252 36.1676C26.0315 36.7083 23.9128 37.8627 21.6478 39.1047C20.7857 39.5869 19.8944 40.0691 19.0615 40.5221C19.003 40.4636 18.9446 40.3906 18.8861 40.3321C14.4148 35.5539 6.14418 32.1785 6.49488 25.7637C6.62639 23.4257 7.43006 17.2885 22.3785 9.83625C34.682 3.77214 44.4723 5.45255 46.1673 9.17869C48.5929 14.4976 40.9215 24.3755 28.2088 25.8075C23.3575 26.3482 20.8149 24.4778 20.172 23.7764C19.4998 23.0458 19.3975 23.0019 19.1491 23.1481C18.74 23.3672 19.003 24.0248 19.1491 24.4047C19.5291 25.3984 21.0926 27.1518 23.7374 28.014C26.0754 28.7738 31.7596 29.1976 38.642 26.5381C46.3426 23.5572 52.3629 15.272 50.5948 8.33118C48.8267 1.28804 37.1369 -1.03531 26.0754 2.8954C19.4998 5.23337 12.369 8.91567 7.24011 13.7085C1.14677 19.4073 0.18236 24.3609 0.576893 26.4358C1.99429 33.8004 12.1498 38.5933 16.2121 42.1441C16.0075 42.261 15.8175 42.3633 15.6568 42.4509C13.6257 43.4592 5.88116 47.5068 3.95234 51.7882C1.76049 56.6395 4.30303 60.1172 5.98345 60.5848C11.2 62.0314 16.5628 59.4304 19.4414 55.1344C22.32 50.8384 21.9693 45.2565 20.6396 42.6993C20.625 42.6701 20.6104 42.6409 20.5811 42.6117C21.1072 42.3048 21.6478 41.9833 22.1739 41.6765C23.2114 41.0628 24.2342 40.4929 25.111 40.0253C24.6141 41.3842 24.2488 43.0062 24.0735 45.3442C23.8543 48.0913 24.9795 51.6567 26.4553 53.0595C27.1128 53.6732 27.8873 53.6878 28.3841 53.6878C30.1084 53.6878 30.8828 52.2558 31.7449 50.5608C32.797 48.4858 33.7468 46.0748 33.7468 46.0748C33.7468 46.0748 32.5632 52.5919 35.7779 52.5919C36.9469 52.5919 38.1305 51.0722 38.6566 50.2977C38.6566 50.3123 38.6566 50.3123 38.6566 50.3123C38.6566 50.3123 38.6858 50.2685 38.7442 50.1662C38.8611 49.9763 38.9342 49.8594 38.9342 49.8594C38.9342 49.8594 38.9342 49.8448 38.9342 49.8301C39.4018 49.0119 40.4539 47.1561 42.0174 44.0729C44.0339 40.0983 45.9773 35.1302 45.9773 35.1302C45.9773 35.1302 46.1527 36.343 46.7518 38.3595C47.1025 39.5431 47.8331 40.8436 48.4176 42.1002C47.95 42.7578 47.6578 43.1231 47.6578 43.1231C47.6578 43.1231 47.6578 43.1231 47.6724 43.1377C47.2924 43.6345 46.8833 44.1752 46.4303 44.7012C44.8376 46.6008 42.938 48.7781 42.675 49.4064C42.3681 50.1516 42.4412 50.6923 43.0257 51.1306C43.4494 51.4521 44.2092 51.4959 44.9837 51.4521C46.4157 51.3498 47.424 50.9991 47.9208 50.7799C48.6952 50.5023 49.6012 50.0785 50.4487 49.4502C52.0122 48.2958 52.962 46.6447 52.8743 44.4674C52.8305 43.2692 52.436 42.071 51.9538 40.9459C52.0999 40.7413 52.2314 40.5367 52.3775 40.3321C54.847 36.7229 56.7612 32.763 56.7612 32.763C56.7612 32.763 56.9366 33.9758 57.5357 35.9923C57.8279 37.0151 58.427 38.1257 58.9531 39.207C56.6297 41.092 55.1977 43.2838 54.6863 44.7158C53.7657 47.3753 54.4817 48.5735 55.8406 48.8511C56.4544 48.9826 57.3311 48.6904 57.974 48.4127C58.7923 48.1497 59.7567 47.6967 60.6773 47.0246C62.2408 45.8702 63.7459 44.2629 63.6582 42.0856C63.6144 41.092 63.3514 40.113 62.9861 39.1632C64.9587 38.3449 67.5013 37.8919 70.7452 38.2718C77.7007 39.0901 79.0742 43.4299 78.8112 45.2565C78.5482 47.083 77.0869 48.0767 76.6047 48.3835C76.1225 48.6904 75.9618 48.7927 76.0056 49.0119C76.0641 49.3333 76.2979 49.3187 76.707 49.2603C77.2769 49.158 80.3601 47.7844 80.4916 44.4236C80.7108 40.1276 76.6194 35.437 69.3863 35.4809ZM15.7299 53.5709C13.4211 56.0842 10.2064 57.034 8.81824 56.2303C7.32778 55.3682 7.91227 51.6567 10.7471 48.9972C12.4713 47.3753 14.6924 45.8702 16.1682 44.9496C16.5043 44.7451 17.0011 44.4528 17.6002 44.0875C17.7025 44.0291 17.761 43.9998 17.761 43.9998C17.8779 43.9268 17.9948 43.8537 18.1117 43.7806C19.1491 47.5798 18.1555 50.9261 15.7299 53.5709ZM32.534 42.1441C31.7303 44.1021 30.0499 49.1141 29.0271 48.8365C28.1503 48.6027 27.6097 44.8035 28.8517 41.0481C29.48 39.1632 30.8098 36.9129 31.5842 36.0361C32.8409 34.6333 34.229 34.1657 34.5651 34.7356C34.9889 35.4809 33.0308 40.9166 32.534 42.1441ZM46.4011 48.7781C46.065 48.9534 45.7435 49.0703 45.5974 48.9826C45.4951 48.9242 45.7435 48.6904 45.7435 48.6904C45.7435 48.6904 47.4824 46.82 48.1692 45.9725C48.5637 45.4757 49.0313 44.8912 49.5281 44.2336C49.5281 44.2921 49.5281 44.3651 49.5281 44.4236C49.5281 46.6593 47.3655 48.1643 46.4011 48.7781ZM57.0973 46.3378C56.8489 46.1624 56.8927 45.578 57.7256 43.7514C58.0471 43.0354 58.8069 41.8372 60.1074 40.6828C60.2536 41.1504 60.3559 41.6034 60.3412 42.0272C60.3266 44.8473 58.3101 45.8994 57.0973 46.3378Z" fill="#CD6799"/>
</svg>
