<svg width="81" height="52" viewBox="0 0 81 52" fill="none" xmlns="http://www.w3.org/2000/svg">
<g clip-path="url(#clip0_8_434)">
<path d="M40.5 0.567871C29.8334 0.567871 23.1666 6.21958 20.5 17.5227C24.5 11.871 29.1666 9.7516 34.5 11.1646C37.5428 11.9706 39.7178 14.3102 42.1253 16.8994C46.0472 21.1179 50.5859 26 60.5 26C71.1666 26 77.8334 20.3483 80.5 9.04526C76.5 14.697 71.8334 16.8163 66.5 15.4033C63.4572 14.5973 61.2822 12.2577 58.8747 9.66848C54.9528 5.44999 50.4141 0.567871 40.5 0.567871ZM20.5 26C9.83344 26 3.16656 31.6518 0.5 42.9548C4.5 37.3031 9.16656 35.1838 14.5 36.5968C17.5428 37.4028 19.7178 39.7424 22.1253 42.3316C26.0472 46.5501 30.5859 51.4322 40.5 51.4322C51.1666 51.4322 57.8334 45.7805 60.5 34.4774C56.5 40.1291 51.8334 42.2485 46.5 40.8355C43.4572 40.0295 41.2822 37.6899 38.8747 35.1007C34.9528 30.8822 30.4141 26 20.5 26Z" fill="url(#paint0_linear_8_434)"/>
</g>
<defs>
<linearGradient id="paint0_linear_8_434" x1="-568.434" y1="2500.65" x2="-302.687" y2="5314.75" gradientUnits="userSpaceOnUse">
<stop stop-color="#2298BD"/>
<stop offset="1" stop-color="#0ED7B5"/>
</linearGradient>
<clipPath id="clip0_8_434">
<rect width="80" height="51" fill="white" transform="translate(0.5 0.5)"/>
</clipPath>
</defs>
</svg>
