<svg width="81" height="80" viewBox="0 0 81 80" fill="none" xmlns="http://www.w3.org/2000/svg">
<g clip-path="url(#clip0_8_449)">
<path d="M40.5006 79.6548C18.525 79.6548 0.680618 62.1401 0.84636 40C1.0121 17.8599 17.6994 0.345215 40.5006 0.345215C63.3033 0.345215 80.1548 18.1899 80.1548 40C80.1548 61.8101 62.4761 79.6548 40.5006 79.6548ZM52.2311 73.5408L40.9962 43.304L30.4213 74.2022C38.1879 76.0208 43.4746 76.5149 52.2311 73.5408ZM24.8046 71.8896L7.95159 25.7909C5.63739 30.7477 5.14326 34.8789 4.81178 40C4.97752 53.5477 12.5769 65.9398 24.8046 71.8896ZM76.0251 40C76.1893 31.2434 72.2255 24.3038 71.894 23.3125C72.2255 30.0878 71.2326 33.5561 70.077 37.3574L58.5107 70.5682C73.0511 61.8101 75.8579 48.7566 76.1893 40H76.0251ZM39.345 38.5129L33.7268 23.1467L29.5957 22.8168C27.9444 21.6597 28.9342 19.8427 30.0913 19.8427C37.5265 20.3383 41.6561 20.3383 49.0928 19.8427C50.9113 19.8427 51.4055 22.4868 49.257 22.8168L45.2916 23.1467L58.1777 61.1487L64.29 40.3299C64.6215 31.2434 62.1415 30.252 58.8375 23.6424C56.1934 18.5198 59.0033 13.563 64.1258 13.3988C59.9931 9.43328 51.5681 4.47644 40.4975 4.31069C29.4268 4.14495 17.6963 9.76322 10.7568 20.3383L22.9846 20.0084C24.4716 20.6698 23.8102 22.8168 22.9846 22.9825L18.6892 23.3125L31.5768 61.9759L39.345 38.5129Z" fill="#21759B"/>
</g>
<defs>
<clipPath id="clip0_8_449">
<rect width="80" height="80" fill="white" transform="translate(0.5)"/>
</clipPath>
</defs>
</svg>
